<?xml version="1.0" encoding="UTF-8" standalone="no"?>
<!DOCTYPE svg PUBLIC "-//W3C//DTD SVG 1.1//EN" "http://www.w3.org/Graphics/SVG/1.1/DTD/svg11.dtd">
<svg width="100%" height="100%" viewBox="0 0 83 141" version="1.1" xmlns="http://www.w3.org/2000/svg" xmlns:xlink="http://www.w3.org/1999/xlink" xml:space="preserve" style="fill-rule:evenodd;clip-rule:evenodd;stroke-linejoin:round;stroke-miterlimit:1.41421;">
    <g transform="matrix(1,0,0,1,2,109.19)">
        <path d="M38.375,1.5C61,1.5 74.625,-11 74.625,-30C74.625,-49.375 63.875,-60.375 47.5,-60.375C36.375,-60.375 30,-55.75 26.625,-50.875L27.125,-70.625L68.875,-70.625L68.875,-89.375L8.625,-89.375L6.75,-36.75L22,-36.75C25,-40.25 29.5,-43.125 36.75,-43.125C44.5,-43.125 48.875,-38.375 48.875,-30.375C48.875,-23.25 45.5,-17.75 38.125,-17.75C29.875,-17.75 27.375,-21.875 26.5,-28.125L3.25,-28.125C3.875,-11.375 14.625,1.5 38.375,1.5Z" style="fill:none;"/>
        <path d="M28.562,-27.86L28.583,-27.73L28.605,-27.598L28.628,-27.468L28.651,-27.339L28.675,-27.211L28.7,-27.084L28.725,-26.958L28.75,-26.833L28.776,-26.709L28.803,-26.587L28.831,-26.465L28.859,-26.345L28.887,-26.226L28.916,-26.108L28.946,-25.992L28.977,-25.876L29.008,-25.762L29.04,-25.649L29.072,-25.537L29.105,-25.426L29.139,-25.317L29.173,-25.208L29.208,-25.101L29.243,-24.996L29.28,-24.891L29.317,-24.788L29.354,-24.685L29.392,-24.585L29.431,-24.485L29.471,-24.387L29.511,-24.289L29.552,-24.194L29.593,-24.099L29.635,-24.006L29.678,-23.913L29.722,-23.822L29.766,-23.733L29.811,-23.644L29.856,-23.557L29.902,-23.471L29.949,-23.386L29.997,-23.302L30.045,-23.22L30.094,-23.139L30.144,-23.059L30.194,-22.98L30.245,-22.902L30.297,-22.825L30.349,-22.75L30.403,-22.675L30.457,-22.602L30.512,-22.53L30.567,-22.459L30.624,-22.389L30.681,-22.32L30.739,-22.252L30.798,-22.185L30.857,-22.119L30.918,-22.053L30.98,-21.989L31.042,-21.926L31.105,-21.864L31.17,-21.803L31.235,-21.742L31.302,-21.683L31.369,-21.624L31.438,-21.566L31.507,-21.509L31.578,-21.453L31.65,-21.398L31.723,-21.343L31.798,-21.29L31.874,-21.237L31.951,-21.184L32.029,-21.133L32.109,-21.083L32.19,-21.033L32.273,-20.984L32.357,-20.936L32.443,-20.888L32.53,-20.842L32.619,-20.796L32.709,-20.751L32.802,-20.707L32.895,-20.663L32.991,-20.621L33.088,-20.579L33.187,-20.538L33.288,-20.498L33.391,-20.459L33.495,-20.421L33.602,-20.383L33.71,-20.347L33.82,-20.311L33.933,-20.277L34.047,-20.243L34.163,-20.21L34.282,-20.179L34.402,-20.148L34.524,-20.118L34.649,-20.089L34.775,-20.062L34.904,-20.035L35.035,-20.01L35.168,-19.985L35.303,-19.962L35.441,-19.94L35.581,-19.919L35.722,-19.899L35.867,-19.88L36.013,-19.863L36.162,-19.846L36.312,-19.831L36.466,-19.817L36.621,-19.805L36.779,-19.793L36.939,-19.783L37.101,-19.775L37.266,-19.767L37.433,-19.761L37.603,-19.756L37.774,-19.753L37.948,-19.751L38.123,-19.75L38.274,-19.751L38.421,-19.753L38.566,-19.758L38.709,-19.764L38.851,-19.771L38.991,-19.781L39.13,-19.792L39.266,-19.804L39.402,-19.818L39.535,-19.834L39.667,-19.851L39.797,-19.87L39.925,-19.89L40.052,-19.911L40.177,-19.935L40.301,-19.959L40.423,-19.985L40.544,-20.013L40.663,-20.041L40.78,-20.072L40.896,-20.103L41.01,-20.136L41.123,-20.17L41.235,-20.206L41.345,-20.243L41.453,-20.281L41.56,-20.32L41.666,-20.361L41.77,-20.402L41.873,-20.446L41.975,-20.49L42.075,-20.536L42.174,-20.582L42.272,-20.63L42.369,-20.679L42.464,-20.73L42.558,-20.781L42.651,-20.834L42.742,-20.888L42.833,-20.943L42.922,-20.999L43.01,-21.057L43.097,-21.115L43.183,-21.175L43.268,-21.236L43.352,-21.298L43.434,-21.362L43.516,-21.426L43.596,-21.492L43.676,-21.559L43.755,-21.627L43.832,-21.696L43.909,-21.766L43.984,-21.838L44.059,-21.911L44.133,-21.985L44.205,-22.06L44.277,-22.136L44.348,-22.214L44.418,-22.293L44.487,-22.373L44.555,-22.454L44.622,-22.536L44.688,-22.62L44.753,-22.705L44.818,-22.791L44.881,-22.879L44.944,-22.967L45.005,-23.057L45.066,-23.148L45.126,-23.241L45.184,-23.334L45.242,-23.429L45.299,-23.525L45.355,-23.622L45.41,-23.721L45.464,-23.821L45.518,-23.922L45.57,-24.024L45.621,-24.127L45.672,-24.232L45.721,-24.338L45.769,-24.445L45.817,-24.553L45.863,-24.662L45.909,-24.773L45.953,-24.885L45.997,-24.998L46.039,-25.112L46.081,-25.228L46.121,-25.344L46.161,-25.462L46.199,-25.581L46.237,-25.7L46.273,-25.822L46.309,-25.944L46.343,-26.067L46.376,-26.191L46.409,-26.317L46.44,-26.443L46.47,-26.571L46.499,-26.699L46.527,-26.829L46.554,-26.96L46.58,-27.092L46.605,-27.224L46.629,-27.358L46.652,-27.493L46.673,-27.628L46.694,-27.765L46.713,-27.903L46.732,-28.041L46.749,-28.181L46.765,-28.321L46.78,-28.462L46.794,-28.604L46.807,-28.747L46.819,-28.891L46.83,-29.036L46.839,-29.182L46.847,-29.328L46.855,-29.475L46.861,-29.623L46.866,-29.772L46.87,-29.922L46.873,-30.072L46.874,-30.223L46.875,-30.374L46.874,-30.545L46.872,-30.713L46.868,-30.88L46.863,-31.046L46.857,-31.21L46.849,-31.372L46.84,-31.534L46.829,-31.694L46.817,-31.852L46.803,-32.009L46.789,-32.165L46.772,-32.319L46.755,-32.472L46.736,-32.624L46.716,-32.774L46.694,-32.922L46.671,-33.069L46.647,-33.215L46.621,-33.359L46.595,-33.502L46.567,-33.643L46.537,-33.783L46.507,-33.921L46.475,-34.058L46.442,-34.194L46.407,-34.328L46.372,-34.46L46.335,-34.591L46.297,-34.721L46.258,-34.849L46.217,-34.976L46.176,-35.101L46.133,-35.225L46.089,-35.348L46.044,-35.468L45.998,-35.588L45.951,-35.706L45.902,-35.823L45.853,-35.938L45.802,-36.052L45.75,-36.164L45.697,-36.275L45.643,-36.385L45.588,-36.493L45.532,-36.6L45.475,-36.706L45.416,-36.81L45.357,-36.912L45.297,-37.014L45.235,-37.114L45.173,-37.213L45.109,-37.31L45.044,-37.406L44.979,-37.501L44.912,-37.594L44.844,-37.686L44.775,-37.777L44.705,-37.867L44.634,-37.955L44.562,-38.042L44.489,-38.128L44.415,-38.213L44.34,-38.296L44.264,-38.378L44.186,-38.459L44.108,-38.539L44.028,-38.617L43.947,-38.694L43.866,-38.77L43.783,-38.845L43.699,-38.919L43.614,-38.992L43.527,-39.063L43.44,-39.133L43.351,-39.203L43.262,-39.27L43.171,-39.337L43.078,-39.403L42.985,-39.468L42.89,-39.531L42.795,-39.593L42.698,-39.654L42.599,-39.714L42.5,-39.773L42.399,-39.831L42.297,-39.887L42.194,-39.943L42.089,-39.997L41.983,-40.05L41.876,-40.102L41.767,-40.153L41.657,-40.202L41.546,-40.25L41.433,-40.298L41.319,-40.344L41.203,-40.388L41.086,-40.432L40.968,-40.474L40.849,-40.515L40.727,-40.555L40.605,-40.594L40.481,-40.631L40.356,-40.667L40.229,-40.702L40.101,-40.736L39.971,-40.768L39.84,-40.799L39.708,-40.828L39.574,-40.857L39.438,-40.883L39.301,-40.909L39.163,-40.933L39.023,-40.956L38.882,-40.977L38.739,-40.997L38.595,-41.016L38.449,-41.033L38.302,-41.049L38.153,-41.063L38.003,-41.076L37.852,-41.087L37.699,-41.097L37.544,-41.106L37.388,-41.113L37.231,-41.118L37.072,-41.122L36.912,-41.124L36.748,-41.125L36.593,-41.125L36.437,-41.123L36.282,-41.121L36.128,-41.117L35.976,-41.113L35.824,-41.108L35.673,-41.102L35.524,-41.094L35.375,-41.086L35.228,-41.077L35.081,-41.068L34.936,-41.057L34.792,-41.045L34.648,-41.033L34.506,-41.02L34.364,-41.005L34.224,-40.99L34.085,-40.974L33.946,-40.958L33.809,-40.94L33.672,-40.922L33.537,-40.902L33.402,-40.882L33.269,-40.862L33.136,-40.84L33.005,-40.818L32.874,-40.794L32.744,-40.77L32.615,-40.746L32.487,-40.72L32.36,-40.694L32.234,-40.667L32.109,-40.639L31.985,-40.611L31.862,-40.582L31.739,-40.552L31.618,-40.521L31.497,-40.49L31.377,-40.458L31.258,-40.425L31.14,-40.392L31.023,-40.357L30.906,-40.323L30.791,-40.287L30.676,-40.251L30.562,-40.214L30.449,-40.177L30.337,-40.139L30.226,-40.1L30.115,-40.061L30.005,-40.021L29.896,-39.98L29.788,-39.939L29.68,-39.898L29.574,-39.855L29.468,-39.812L29.363,-39.769L29.258,-39.724L29.155,-39.68L29.052,-39.634L28.95,-39.588L28.848,-39.542L28.747,-39.495L28.647,-39.447L28.548,-39.399L28.45,-39.35L28.352,-39.301L28.255,-39.251L28.158,-39.201L28.062,-39.15L27.967,-39.099L27.873,-39.047L27.779,-38.995L27.686,-38.942L27.594,-38.888L27.502,-38.835L27.411,-38.78L27.32,-38.725L27.231,-38.67L27.141,-38.614L27.053,-38.558L26.965,-38.501L26.877,-38.443L26.791,-38.386L26.705,-38.327L26.619,-38.269L26.534,-38.21L26.45,-38.15L26.366,-38.09L26.283,-38.03L26.201,-37.969L26.118,-37.907L26.037,-37.846L25.956,-37.783L25.876,-37.721L25.796,-37.658L25.717,-37.594L25.641,-37.533L25.483,-37.402L25.329,-37.271L25.178,-37.139L25.029,-37.006L24.882,-36.871L24.737,-36.734L24.594,-36.597L24.453,-36.457L24.313,-36.317L24.176,-36.175L24.041,-36.032L23.908,-35.888L23.776,-35.742L23.646,-35.596L22.913,-34.75L4.677,-34.75L6.695,-91.375L70.875,-91.375L70.875,-68.625L29.075,-68.625L28.761,-56.213L28.801,-56.247L28.934,-56.36L29.068,-56.473L29.204,-56.585L29.341,-56.696L29.48,-56.807L29.62,-56.917L29.761,-57.026L29.904,-57.135L30.049,-57.242L30.194,-57.35L30.341,-57.456L30.49,-57.562L30.64,-57.667L30.791,-57.771L30.944,-57.874L31.098,-57.977L31.254,-58.078L31.411,-58.179L31.57,-58.279L31.73,-58.378L31.891,-58.476L32.054,-58.574L32.219,-58.67L32.385,-58.766L32.552,-58.86L32.721,-58.954L32.891,-59.046L33.063,-59.138L33.236,-59.229L33.411,-59.318L33.587,-59.407L33.764,-59.495L33.943,-59.581L34.124,-59.667L34.306,-59.751L34.49,-59.834L34.675,-59.917L34.861,-59.998L35.049,-60.078L35.239,-60.157L35.43,-60.234L35.623,-60.311L35.817,-60.386L36.012,-60.46L36.21,-60.533L36.408,-60.605L36.608,-60.675L36.81,-60.744L37.013,-60.812L37.218,-60.879L37.424,-60.944L37.632,-61.009L37.841,-61.071L38.052,-61.133L38.264,-61.193L38.478,-61.252L38.694,-61.309L38.911,-61.365L39.129,-61.42L39.349,-61.473L39.571,-61.525L39.794,-61.576L40.019,-61.625L40.245,-61.672L40.473,-61.719L40.702,-61.763L40.933,-61.806L41.166,-61.848L41.4,-61.888L41.636,-61.927L41.873,-61.964L42.112,-62L42.353,-62.034L42.595,-62.067L42.838,-62.098L43.083,-62.127L43.33,-62.155L43.579,-62.181L43.829,-62.206L44.08,-62.229L44.334,-62.25L44.589,-62.27L44.845,-62.288L45.103,-62.304L45.363,-62.319L45.624,-62.332L45.887,-62.343L46.152,-62.353L46.418,-62.361L46.686,-62.367L46.956,-62.371L47.227,-62.374L47.499,-62.375L47.702,-62.374L47.904,-62.373L48.105,-62.37L48.306,-62.367L48.506,-62.362L48.706,-62.356L48.905,-62.349L49.104,-62.341L49.302,-62.332L49.5,-62.322L49.698,-62.311L49.894,-62.299L50.091,-62.285L50.287,-62.271L50.482,-62.256L50.677,-62.239L50.871,-62.222L51.065,-62.203L51.258,-62.184L51.451,-62.163L51.644,-62.141L51.836,-62.118L52.027,-62.094L52.218,-62.07L52.408,-62.044L52.598,-62.017L52.787,-61.988L52.976,-61.959L53.164,-61.929L53.351,-61.898L53.538,-61.866L53.725,-61.832L53.911,-61.798L54.096,-61.762L54.281,-61.726L54.466,-61.688L54.65,-61.65L54.833,-61.61L55.016,-61.569L55.198,-61.527L55.379,-61.484L55.56,-61.44L55.741,-61.396L55.921,-61.35L56.1,-61.302L56.279,-61.254L56.457,-61.205L56.634,-61.155L56.811,-61.104L56.988,-61.051L57.164,-60.998L57.339,-60.943L57.513,-60.888L57.687,-60.831L57.861,-60.774L58.034,-60.715L58.206,-60.656L58.377,-60.595L58.548,-60.533L58.719,-60.47L58.889,-60.406L59.058,-60.342L59.226,-60.276L59.394,-60.209L59.561,-60.141L59.728,-60.071L59.894,-60.001L60.059,-59.93L60.224,-59.858L60.388,-59.785L60.551,-59.711L60.714,-59.635L60.876,-59.559L61.037,-59.481L61.198,-59.403L61.358,-59.324L61.517,-59.243L61.676,-59.162L61.834,-59.079L61.991,-58.996L62.148,-58.911L62.304,-58.825L62.459,-58.739L62.614,-58.651L62.768,-58.562L62.921,-58.473L63.073,-58.382L63.225,-58.29L63.376,-58.197L63.527,-58.104L63.676,-58.009L63.825,-57.913L63.973,-57.816L64.121,-57.718L64.267,-57.619L64.413,-57.52L64.559,-57.419L64.703,-57.317L64.847,-57.214L64.99,-57.11L65.132,-57.005L65.274,-56.899L65.415,-56.793L65.555,-56.685L65.694,-56.576L65.832,-56.466L65.97,-56.355L66.107,-56.244L66.243,-56.131L66.378,-56.017L66.513,-55.902L66.647,-55.786L66.78,-55.67L66.912,-55.552L67.043,-55.433L67.174,-55.314L67.304,-55.193L67.433,-55.072L67.561,-54.949L67.689,-54.826L67.815,-54.701L67.941,-54.576L68.066,-54.45L68.19,-54.322L68.313,-54.194L68.436,-54.065L68.558,-53.935L68.678,-53.804L68.798,-53.672L68.918,-53.539L69.036,-53.405L69.153,-53.27L69.27,-53.134L69.386,-52.997L69.501,-52.86L69.615,-52.721L69.728,-52.582L69.841,-52.441L69.952,-52.3L70.063,-52.158L70.173,-52.015L70.282,-51.871L70.39,-51.726L70.497,-51.58L70.603,-51.433L70.709,-51.285L70.813,-51.137L70.917,-50.987L71.02,-50.837L71.122,-50.686L71.223,-50.534L71.323,-50.381L71.422,-50.227L71.521,-50.072L71.618,-49.916L71.715,-49.76L71.811,-49.602L71.905,-49.444L71.999,-49.285L72.092,-49.125L72.185,-48.964L72.276,-48.802L72.366,-48.639L72.456,-48.476L72.544,-48.312L72.632,-48.146L72.718,-47.98L72.804,-47.813L72.889,-47.646L72.973,-47.477L73.056,-47.308L73.138,-47.137L73.219,-46.966L73.3,-46.794L73.379,-46.621L73.457,-46.448L73.535,-46.273L73.611,-46.098L73.687,-45.922L73.762,-45.745L73.835,-45.567L73.908,-45.389L73.98,-45.209L74.051,-45.029L74.121,-44.848L74.19,-44.666L74.258,-44.483L74.326,-44.3L74.392,-44.116L74.457,-43.93L74.522,-43.744L74.585,-43.558L74.648,-43.37L74.709,-43.182L74.77,-42.993L74.829,-42.803L74.888,-42.612L74.946,-42.421L75.002,-42.228L75.058,-42.035L75.113,-41.841L75.167,-41.647L75.22,-41.451L75.272,-41.255L75.323,-41.058L75.373,-40.86L75.422,-40.661L75.47,-40.462L75.518,-40.262L75.564,-40.061L75.609,-39.859L75.653,-39.657L75.697,-39.453L75.739,-39.249L75.78,-39.045L75.821,-38.839L75.86,-38.633L75.899,-38.426L75.936,-38.218L75.972,-38.009L76.008,-37.8L76.043,-37.59L76.076,-37.379L76.109,-37.167L76.14,-36.955L76.171,-36.741L76.2,-36.527L76.229,-36.313L76.257,-36.097L76.283,-35.881L76.309,-35.664L76.334,-35.447L76.357,-35.228L76.38,-35.009L76.402,-34.789L76.422,-34.568L76.442,-34.347L76.461,-34.125L76.478,-33.902L76.495,-33.678L76.511,-33.454L76.525,-33.229L76.539,-33.003L76.552,-32.776L76.563,-32.549L76.574,-32.321L76.584,-32.092L76.592,-31.863L76.6,-31.632L76.607,-31.401L76.612,-31.17L76.617,-30.937L76.62,-30.704L76.623,-30.47L76.624,-30.235L76.625,-29.999L76.624,-29.766L76.622,-29.533L76.619,-29.301L76.615,-29.069L76.609,-28.838L76.601,-28.607L76.593,-28.377L76.583,-28.147L76.572,-27.918L76.56,-27.689L76.546,-27.461L76.531,-27.234L76.515,-27.007L76.497,-26.781L76.478,-26.555L76.458,-26.33L76.436,-26.106L76.414,-25.882L76.39,-25.659L76.364,-25.436L76.338,-25.214L76.31,-24.993L76.28,-24.772L76.25,-24.552L76.218,-24.332L76.185,-24.113L76.15,-23.895L76.115,-23.677L76.078,-23.46L76.04,-23.244L76,-23.028L75.959,-22.813L75.917,-22.598L75.874,-22.384L75.829,-22.171L75.783,-21.958L75.736,-21.746L75.687,-21.535L75.638,-21.324L75.587,-21.114L75.534,-20.905L75.481,-20.696L75.426,-20.488L75.37,-20.281L75.312,-20.074L75.254,-19.868L75.194,-19.663L75.133,-19.458L75.07,-19.255L75.007,-19.051L74.942,-18.849L74.876,-18.647L74.808,-18.446L74.739,-18.246L74.669,-18.046L74.598,-17.847L74.526,-17.649L74.452,-17.451L74.377,-17.254L74.301,-17.058L74.224,-16.863L74.145,-16.668L74.065,-16.474L73.984,-16.281L73.901,-16.089L73.818,-15.897L73.733,-15.706L73.647,-15.516L73.559,-15.327L73.471,-15.138L73.381,-14.951L73.29,-14.763L73.198,-14.577L73.104,-14.392L73.01,-14.207L72.914,-14.023L72.817,-13.84L72.718,-13.658L72.619,-13.476L72.518,-13.295L72.416,-13.115L72.313,-12.936L72.209,-12.758L72.103,-12.58L71.996,-12.403L71.888,-12.228L71.779,-12.053L71.669,-11.878L71.557,-11.705L71.445,-11.532L71.331,-11.361L71.216,-11.19L71.099,-11.02L70.982,-10.85L70.863,-10.682L70.744,-10.514L70.623,-10.348L70.501,-10.182L70.377,-10.017L70.253,-9.853L70.127,-9.69L70,-9.528L69.873,-9.366L69.743,-9.206L69.613,-9.046L69.482,-8.887L69.349,-8.729L69.216,-8.572L69.081,-8.416L68.945,-8.261L68.808,-8.107L68.67,-7.953L68.53,-7.801L68.39,-7.649L68.248,-7.499L68.106,-7.349L67.962,-7.2L67.817,-7.052L67.671,-6.905L67.524,-6.759L67.376,-6.614L67.226,-6.47L67.076,-6.327L66.924,-6.185L66.772,-6.043L66.618,-5.903L66.463,-5.764L66.308,-5.625L66.151,-5.488L65.993,-5.351L65.833,-5.216L65.673,-5.081L65.512,-4.947L65.35,-4.815L65.186,-4.683L65.022,-4.552L64.856,-4.422L64.69,-4.294L64.522,-4.166L64.354,-4.039L64.184,-3.913L64.013,-3.788L63.841,-3.664L63.669,-3.541L63.495,-3.42L63.32,-3.299L63.144,-3.179L62.967,-3.06L62.789,-2.942L62.61,-2.825L62.43,-2.709L62.249,-2.594L62.067,-2.481L61.884,-2.368L61.7,-2.256L61.515,-2.145L61.329,-2.035L61.142,-1.927L60.954,-1.819L60.765,-1.712L60.575,-1.607L60.384,-1.502L60.192,-1.398L59.999,-1.296L59.805,-1.194L59.61,-1.094L59.415,-0.994L59.218,-0.896L59.02,-0.798L58.821,-0.702L58.621,-0.607L58.421,-0.513L58.219,-0.419L58.016,-0.327L57.813,-0.236L57.609,-0.146L57.403,-0.057L57.197,0.031L56.989,0.118L56.781,0.203L56.572,0.288L56.362,0.372L56.151,0.454L55.939,0.536L55.726,0.616L55.512,0.696L55.297,0.774L55.082,0.851L54.865,0.928L54.647,1.003L54.429,1.077L54.21,1.15L53.989,1.221L53.768,1.292L53.546,1.362L53.323,1.431L53.099,1.498L52.875,1.564L52.649,1.63L52.423,1.694L52.195,1.757L51.967,1.819L51.738,1.88L51.508,1.94L51.277,1.999L51.045,2.056L50.812,2.113L50.579,2.168L50.344,2.223L50.109,2.276L49.873,2.328L49.635,2.379L49.398,2.429L49.159,2.478L48.919,2.525L48.679,2.572L48.437,2.617L48.195,2.662L47.952,2.705L47.708,2.747L47.463,2.788L47.218,2.828L46.971,2.866L46.724,2.904L46.476,2.94L46.227,2.976L45.977,3.01L45.726,3.043L45.475,3.075L45.222,3.105L44.969,3.135L44.715,3.163L44.46,3.191L44.205,3.217L43.948,3.242L43.691,3.266L43.433,3.289L43.174,3.31L42.914,3.331L42.654,3.35L42.392,3.368L42.13,3.385L41.867,3.401L41.603,3.415L41.338,3.429L41.073,3.441L40.807,3.452L40.54,3.462L40.272,3.471L40.003,3.479L39.734,3.485L39.464,3.491L39.193,3.495L38.921,3.498L38.648,3.499L38.375,3.5L38.089,3.499L37.804,3.498L37.52,3.495L37.237,3.49L36.955,3.485L36.675,3.478L36.395,3.47L36.117,3.461L35.84,3.451L35.564,3.44L35.289,3.427L35.015,3.413L34.743,3.398L34.471,3.382L34.201,3.365L33.932,3.346L33.664,3.327L33.397,3.306L33.131,3.284L32.866,3.26L32.602,3.236L32.34,3.211L32.078,3.184L31.818,3.156L31.559,3.127L31.301,3.097L31.044,3.066L30.788,3.033L30.534,3L30.28,2.965L30.027,2.929L29.776,2.892L29.526,2.854L29.277,2.815L29.029,2.774L28.782,2.733L28.536,2.69L28.291,2.646L28.048,2.601L27.805,2.555L27.564,2.508L27.324,2.46L27.084,2.411L26.846,2.36L26.609,2.309L26.374,2.256L26.139,2.202L25.905,2.147L25.673,2.091L25.441,2.034L25.211,1.976L24.982,1.917L24.753,1.856L24.526,1.795L24.3,1.733L24.076,1.669L23.852,1.604L23.629,1.539L23.408,1.472L23.187,1.404L22.968,1.335L22.749,1.265L22.532,1.194L22.316,1.122L22.101,1.049L21.887,0.974L21.675,0.899L21.463,0.823L21.252,0.745L21.043,0.667L20.835,0.588L20.627,0.507L20.421,0.426L20.216,0.343L20.012,0.259L19.809,0.175L19.607,0.089L19.407,0.002L19.207,-0.085L19.009,-0.174L18.811,-0.264L18.615,-0.354L18.42,-0.446L18.226,-0.539L18.033,-0.633L17.841,-0.727L17.65,-0.823L17.46,-0.92L17.272,-1.017L17.084,-1.116L16.898,-1.216L16.712,-1.316L16.528,-1.418L16.345,-1.521L16.163,-1.624L15.982,-1.729L15.803,-1.834L15.624,-1.941L15.446,-2.048L15.27,-2.157L15.095,-2.266L14.92,-2.376L14.747,-2.487L14.575,-2.6L14.404,-2.713L14.235,-2.827L14.066,-2.942L13.898,-3.058L13.732,-3.174L13.567,-3.292L13.402,-3.411L13.239,-3.53L13.077,-3.651L12.916,-3.772L12.757,-3.895L12.598,-4.018L12.44,-4.142L12.284,-4.267L12.129,-4.393L11.975,-4.519L11.822,-4.647L11.67,-4.775L11.519,-4.905L11.369,-5.035L11.22,-5.166L11.073,-5.298L10.927,-5.431L10.781,-5.564L10.637,-5.699L10.494,-5.834L10.352,-5.97L10.212,-6.107L10.072,-6.245L9.934,-6.383L9.796,-6.523L9.66,-6.663L9.525,-6.804L9.391,-6.946L9.258,-7.088L9.126,-7.232L8.996,-7.376L8.866,-7.521L8.738,-7.667L8.61,-7.813L8.484,-7.961L8.359,-8.109L8.235,-8.258L8.113,-8.407L7.991,-8.557L7.87,-8.709L7.751,-8.86L7.633,-9.013L7.515,-9.166L7.399,-9.32L7.284,-9.475L7.171,-9.631L7.058,-9.787L6.946,-9.944L6.836,-10.101L6.727,-10.26L6.618,-10.419L6.511,-10.578L6.405,-10.739L6.3,-10.9L6.197,-11.062L6.094,-11.224L5.993,-11.387L5.892,-11.551L5.793,-11.715L5.695,-11.88L5.597,-12.046L5.501,-12.213L5.407,-12.38L5.313,-12.547L5.22,-12.715L5.129,-12.884L5.038,-13.054L4.949,-13.224L4.861,-13.395L4.773,-13.566L4.687,-13.738L4.602,-13.911L4.518,-14.084L4.436,-14.258L4.354,-14.432L4.273,-14.607L4.194,-14.782L4.116,-14.958L4.038,-15.135L3.962,-15.312L3.887,-15.49L3.813,-15.668L3.74,-15.847L3.668,-16.026L3.597,-16.206L3.527,-16.387L3.459,-16.568L3.391,-16.749L3.324,-16.932L3.259,-17.114L3.195,-17.297L3.131,-17.481L3.069,-17.665L3.008,-17.85L2.948,-18.035L2.889,-18.22L2.831,-18.406L2.774,-18.593L2.718,-18.78L2.663,-18.968L2.609,-19.156L2.557,-19.344L2.505,-19.533L2.454,-19.723L2.405,-19.913L2.356,-20.103L2.309,-20.294L2.262,-20.485L2.217,-20.677L2.172,-20.869L2.129,-21.062L2.087,-21.255L2.045,-21.448L2.005,-21.642L1.966,-21.836L1.928,-22.031L1.891,-22.226L1.855,-22.422L1.819,-22.618L1.785,-22.814L1.752,-23.011L1.72,-23.208L1.689,-23.406L1.659,-23.603L1.63,-23.802L1.602,-24.001L1.575,-24.2L1.549,-24.399L1.524,-24.599L1.5,-24.799L1.477,-25L1.455,-25.201L1.434,-25.402L1.414,-25.604L1.395,-25.806L1.377,-26.008L1.36,-26.211L1.344,-26.414L1.329,-26.617L1.315,-26.821L1.302,-27.025L1.29,-27.23L1.279,-27.434L1.269,-27.639L1.26,-27.845L1.169,-30.125L28.231,-30.125L28.52,-28.13L28.562,-27.86ZM10.555,-87.375L8.823,-38.75L21.106,-38.75L21.12,-38.765L21.286,-38.94L21.455,-39.115L21.627,-39.289L21.802,-39.461L21.979,-39.632L22.16,-39.802L22.343,-39.97L22.53,-40.137L22.719,-40.302L22.911,-40.466L23.104,-40.625L23.206,-40.708L23.305,-40.788L23.406,-40.867L23.507,-40.946L23.609,-41.024L23.712,-41.102L23.815,-41.18L23.919,-41.257L24.024,-41.333L24.13,-41.409L24.237,-41.484L24.344,-41.559L24.453,-41.633L24.562,-41.707L24.672,-41.78L24.782,-41.853L24.894,-41.925L25.006,-41.996L25.119,-42.067L25.233,-42.138L25.348,-42.207L25.464,-42.276L25.58,-42.345L25.697,-42.412L25.815,-42.479L25.934,-42.546L26.054,-42.612L26.174,-42.677L26.296,-42.741L26.418,-42.805L26.541,-42.868L26.665,-42.93L26.789,-42.992L26.915,-43.053L27.041,-43.113L27.169,-43.172L27.297,-43.231L27.426,-43.289L27.555,-43.346L27.686,-43.402L27.818,-43.458L27.95,-43.513L28.083,-43.567L28.217,-43.62L28.352,-43.673L28.488,-43.724L28.624,-43.775L28.762,-43.825L28.9,-43.874L29.039,-43.923L29.179,-43.97L29.32,-44.017L29.462,-44.062L29.604,-44.107L29.748,-44.151L29.892,-44.194L30.037,-44.237L30.183,-44.278L30.33,-44.318L30.478,-44.358L30.627,-44.396L30.776,-44.434L30.926,-44.471L31.078,-44.507L31.23,-44.541L31.383,-44.575L31.537,-44.608L31.692,-44.64L31.847,-44.671L32.004,-44.701L32.161,-44.73L32.319,-44.758L32.479,-44.786L32.639,-44.812L32.8,-44.837L32.961,-44.861L33.124,-44.884L33.288,-44.906L33.452,-44.927L33.618,-44.947L33.784,-44.966L33.951,-44.984L34.119,-45.001L34.288,-45.017L34.458,-45.031L34.629,-45.045L34.801,-45.058L34.973,-45.069L35.147,-45.08L35.321,-45.089L35.497,-45.098L35.673,-45.105L35.85,-45.111L36.028,-45.116L36.207,-45.12L36.387,-45.123L36.568,-45.124L36.752,-45.125L36.95,-45.124L37.15,-45.121L37.348,-45.116L37.545,-45.11L37.741,-45.101L37.936,-45.09L38.13,-45.078L38.323,-45.063L38.515,-45.047L38.706,-45.029L38.896,-45.008L39.085,-44.986L39.273,-44.962L39.459,-44.936L39.645,-44.907L39.829,-44.877L40.013,-44.845L40.195,-44.811L40.376,-44.775L40.556,-44.737L40.735,-44.697L40.913,-44.656L41.089,-44.612L41.265,-44.566L41.439,-44.518L41.612,-44.468L41.784,-44.416L41.954,-44.362L42.124,-44.307L42.292,-44.249L42.459,-44.189L42.625,-44.127L42.789,-44.064L42.953,-43.998L43.114,-43.93L43.275,-43.86L43.434,-43.789L43.592,-43.715L43.749,-43.639L43.904,-43.561L44.058,-43.482L44.21,-43.4L44.361,-43.317L44.511,-43.231L44.659,-43.144L44.805,-43.054L44.95,-42.963L45.094,-42.869L45.236,-42.774L45.377,-42.677L45.516,-42.578L45.653,-42.477L45.789,-42.374L45.923,-42.269L46.056,-42.163L46.187,-42.054L46.316,-41.944L46.444,-41.832L46.57,-41.718L46.694,-41.602L46.817,-41.485L46.937,-41.366L47.057,-41.245L47.174,-41.122L47.29,-40.998L47.403,-40.871L47.516,-40.744L47.626,-40.614L47.734,-40.483L47.841,-40.35L47.946,-40.216L48.049,-40.08L48.15,-39.943L48.25,-39.803L48.347,-39.663L48.443,-39.521L48.537,-39.377L48.629,-39.232L48.719,-39.085L48.807,-38.937L48.893,-38.788L48.978,-38.637L49.061,-38.484L49.141,-38.331L49.22,-38.176L49.297,-38.019L49.372,-37.861L49.446,-37.702L49.517,-37.542L49.587,-37.38L49.654,-37.217L49.72,-37.053L49.784,-36.887L49.846,-36.72L49.906,-36.552L49.965,-36.383L50.021,-36.213L50.076,-36.041L50.129,-35.868L50.18,-35.694L50.229,-35.519L50.276,-35.343L50.322,-35.165L50.366,-34.987L50.407,-34.807L50.447,-34.626L50.486,-34.444L50.522,-34.261L50.557,-34.077L50.589,-33.891L50.62,-33.705L50.65,-33.517L50.677,-33.329L50.703,-33.139L50.726,-32.949L50.748,-32.757L50.769,-32.564L50.787,-32.37L50.804,-32.175L50.819,-31.979L50.832,-31.782L50.843,-31.584L50.853,-31.385L50.861,-31.185L50.867,-30.984L50.872,-30.782L50.874,-30.579L50.875,-30.376L50.874,-30.193L50.872,-30.012L50.869,-29.832L50.864,-29.652L50.858,-29.472L50.851,-29.293L50.842,-29.114L50.832,-28.936L50.82,-28.759L50.807,-28.582L50.793,-28.406L50.777,-28.23L50.76,-28.055L50.741,-27.88L50.721,-27.706L50.699,-27.533L50.676,-27.36L50.652,-27.188L50.626,-27.016L50.599,-26.845L50.57,-26.675L50.54,-26.505L50.509,-26.337L50.475,-26.168L50.441,-26.001L50.405,-25.834L50.367,-25.668L50.328,-25.503L50.287,-25.338L50.245,-25.175L50.201,-25.012L50.156,-24.849L50.109,-24.688L50.061,-24.527L50.011,-24.367L49.96,-24.209L49.906,-24.05L49.852,-23.893L49.795,-23.737L49.738,-23.581L49.678,-23.427L49.617,-23.273L49.554,-23.12L49.49,-22.969L49.424,-22.818L49.356,-22.668L49.286,-22.519L49.215,-22.371L49.142,-22.225L49.068,-22.079L48.992,-21.934L48.914,-21.791L48.834,-21.648L48.753,-21.507L48.67,-21.367L48.585,-21.228L48.498,-21.09L48.41,-20.954L48.32,-20.818L48.228,-20.684L48.135,-20.551L48.039,-20.42L47.942,-20.29L47.843,-20.161L47.742,-20.034L47.64,-19.908L47.536,-19.783L47.43,-19.66L47.322,-19.539L47.212,-19.418L47.101,-19.3L46.988,-19.183L46.873,-19.067L46.756,-18.954L46.638,-18.841L46.517,-18.731L46.395,-18.622L46.272,-18.515L46.146,-18.41L46.019,-18.306L45.89,-18.204L45.759,-18.104L45.627,-18.006L45.493,-17.909L45.357,-17.815L45.22,-17.722L45.081,-17.632L44.94,-17.543L44.797,-17.456L44.654,-17.372L44.508,-17.289L44.361,-17.208L44.212,-17.129L44.062,-17.053L43.91,-16.978L43.757,-16.906L43.602,-16.836L43.445,-16.767L43.288,-16.701L43.128,-16.637L42.967,-16.576L42.805,-16.516L42.642,-16.459L42.477,-16.403L42.31,-16.35L42.143,-16.299L41.973,-16.251L41.803,-16.204L41.631,-16.16L41.458,-16.118L41.283,-16.079L41.108,-16.041L40.931,-16.006L40.752,-15.973L40.573,-15.942L40.392,-15.914L40.21,-15.888L40.026,-15.864L39.842,-15.842L39.656,-15.823L39.469,-15.806L39.28,-15.791L39.091,-15.779L38.9,-15.768L38.708,-15.76L38.515,-15.755L38.321,-15.751L38.127,-15.75L37.917,-15.751L37.711,-15.753L37.506,-15.757L37.303,-15.763L37.103,-15.77L36.903,-15.779L36.706,-15.79L36.51,-15.802L36.316,-15.816L36.124,-15.832L35.933,-15.849L35.744,-15.868L35.557,-15.889L35.371,-15.911L35.187,-15.935L35.005,-15.96L34.824,-15.987L34.645,-16.016L34.467,-16.047L34.291,-16.079L34.117,-16.113L33.944,-16.149L33.773,-16.186L33.603,-16.226L33.435,-16.266L33.268,-16.309L33.103,-16.353L32.939,-16.399L32.777,-16.447L32.617,-16.497L32.458,-16.548L32.301,-16.601L32.145,-16.656L31.99,-16.712L31.838,-16.77L31.686,-16.83L31.537,-16.892L31.389,-16.956L31.242,-17.021L31.097,-17.088L30.954,-17.157L30.812,-17.227L30.672,-17.3L30.533,-17.374L30.396,-17.449L30.261,-17.527L30.127,-17.606L29.995,-17.687L29.865,-17.769L29.736,-17.854L29.609,-17.94L29.483,-18.027L29.36,-18.116L29.238,-18.207L29.118,-18.299L28.999,-18.393L28.882,-18.489L28.767,-18.586L28.654,-18.684L28.543,-18.784L28.433,-18.885L28.325,-18.988L28.219,-19.093L28.114,-19.198L28.012,-19.305L27.911,-19.413L27.812,-19.523L27.714,-19.634L27.619,-19.746L27.525,-19.859L27.433,-19.974L27.342,-20.089L27.254,-20.206L27.167,-20.324L27.082,-20.443L26.998,-20.563L26.916,-20.684L26.836,-20.806L26.758,-20.929L26.681,-21.053L26.606,-21.178L26.532,-21.303L26.46,-21.43L26.39,-21.558L26.321,-21.686L26.253,-21.815L26.187,-21.945L26.123,-22.076L26.06,-22.208L25.998,-22.34L25.938,-22.473L25.88,-22.607L25.822,-22.742L25.766,-22.877L25.712,-23.013L25.658,-23.15L25.606,-23.287L25.556,-23.425L25.506,-23.564L25.458,-23.703L25.411,-23.843L25.365,-23.984L25.32,-24.125L25.277,-24.267L25.234,-24.41L25.193,-24.553L25.152,-24.697L25.113,-24.841L25.075,-24.986L25.038,-25.131L25.001,-25.278L24.966,-25.424L24.932,-25.572L24.898,-25.719L24.866,-25.868L24.834,-26.017L24.812,-26.125L5.383,-26.125L5.396,-25.988L5.414,-25.807L5.433,-25.626L5.452,-25.445L5.473,-25.265L5.494,-25.085L5.517,-24.906L5.54,-24.727L5.564,-24.548L5.589,-24.37L5.615,-24.193L5.642,-24.016L5.67,-23.839L5.699,-23.663L5.728,-23.488L5.759,-23.312L5.79,-23.138L5.822,-22.964L5.855,-22.79L5.889,-22.617L5.924,-22.444L5.96,-22.272L5.996,-22.1L6.034,-21.929L6.072,-21.758L6.112,-21.588L6.152,-21.418L6.193,-21.249L6.235,-21.08L6.278,-20.912L6.322,-20.744L6.366,-20.577L6.412,-20.411L6.458,-20.244L6.506,-20.079L6.554,-19.914L6.603,-19.749L6.653,-19.585L6.704,-19.422L6.756,-19.259L6.809,-19.096L6.862,-18.935L6.917,-18.773L6.972,-18.613L7.028,-18.452L7.086,-18.293L7.144,-18.134L7.203,-17.975L7.263,-17.817L7.324,-17.66L7.385,-17.503L7.448,-17.347L7.511,-17.191L7.576,-17.036L7.641,-16.881L7.708,-16.728L7.775,-16.574L7.843,-16.421L7.912,-16.269L7.982,-16.117L8.052,-15.966L8.124,-15.816L8.197,-15.666L8.27,-15.517L8.345,-15.368L8.42,-15.22L8.496,-15.072L8.573,-14.925L8.651,-14.779L8.73,-14.633L8.81,-14.488L8.891,-14.344L8.973,-14.2L9.055,-14.057L9.139,-13.914L9.224,-13.772L9.309,-13.631L9.395,-13.49L9.483,-13.35L9.571,-13.21L9.66,-13.071L9.75,-12.933L9.841,-12.795L9.933,-12.658L10.026,-12.522L10.12,-12.386L10.214,-12.251L10.31,-12.116L10.407,-11.982L10.504,-11.849L10.603,-11.716L10.702,-11.584L10.802,-11.453L10.904,-11.322L11.006,-11.192L11.109,-11.063L11.213,-10.934L11.319,-10.806L11.425,-10.678L11.532,-10.552L11.64,-10.425L11.749,-10.3L11.859,-10.175L11.969,-10.051L12.081,-9.928L12.194,-9.805L12.308,-9.683L12.423,-9.561L12.538,-9.44L12.655,-9.32L12.773,-9.201L12.892,-9.082L13.011,-8.964L13.132,-8.847L13.254,-8.73L13.376,-8.614L13.5,-8.498L13.624,-8.384L13.75,-8.27L13.877,-8.157L14.004,-8.044L14.133,-7.932L14.263,-7.821L14.393,-7.71L14.525,-7.601L14.658,-7.492L14.791,-7.383L14.926,-7.276L15.062,-7.169L15.199,-7.063L15.336,-6.957L15.475,-6.852L15.615,-6.748L15.756,-6.645L15.898,-6.543L16.041,-6.441L16.185,-6.34L16.33,-6.239L16.476,-6.14L16.623,-6.041L16.772,-5.943L16.921,-5.845L17.071,-5.749L17.223,-5.653L17.375,-5.558L17.529,-5.464L17.683,-5.37L17.839,-5.277L17.996,-5.185L18.154,-5.094L18.312,-5.004L18.472,-4.914L18.634,-4.825L18.796,-4.737L18.959,-4.65L19.123,-4.563L19.289,-4.477L19.455,-4.392L19.623,-4.308L19.792,-4.225L19.961,-4.142L20.132,-4.061L20.305,-3.98L20.478,-3.9L20.652,-3.821L20.827,-3.742L21.004,-3.665L21.182,-3.588L21.36,-3.512L21.54,-3.437L21.721,-3.363L21.903,-3.29L22.087,-3.217L22.271,-3.146L22.457,-3.075L22.643,-3.005L22.831,-2.936L23.02,-2.868L23.21,-2.801L23.402,-2.734L23.594,-2.669L23.787,-2.604L23.982,-2.54L24.178,-2.478L24.375,-2.416L24.573,-2.355L24.773,-2.295L24.973,-2.235L25.175,-2.177L25.378,-2.12L25.582,-2.063L25.787,-2.008L25.993,-1.953L26.201,-1.9L26.409,-1.847L26.619,-1.795L26.83,-1.744L27.043,-1.695L27.256,-1.646L27.471,-1.598L27.686,-1.551L27.903,-1.505L28.122,-1.46L28.341,-1.416L28.561,-1.373L28.783,-1.331L29.006,-1.289L29.23,-1.249L29.456,-1.21L29.682,-1.172L29.91,-1.135L30.139,-1.099L30.369,-1.064L30.6,-1.03L30.833,-0.997L31.066,-0.965L31.301,-0.934L31.538,-0.904L31.775,-0.875L32.013,-0.847L32.253,-0.82L32.494,-0.794L32.736,-0.77L32.98,-0.746L33.225,-0.723L33.47,-0.702L33.718,-0.681L33.966,-0.662L34.215,-0.644L34.466,-0.626L34.718,-0.61L34.971,-0.595L35.226,-0.581L35.481,-0.568L35.738,-0.557L35.996,-0.546L36.256,-0.536L36.516,-0.528L36.778,-0.52L37.041,-0.514L37.306,-0.509L37.571,-0.505L37.838,-0.502L38.106,-0.501L38.375,-0.5L38.631,-0.501L38.886,-0.502L39.141,-0.505L39.394,-0.509L39.647,-0.514L39.898,-0.52L40.149,-0.527L40.399,-0.535L40.648,-0.545L40.897,-0.555L41.144,-0.566L41.391,-0.579L41.636,-0.593L41.881,-0.607L42.125,-0.623L42.368,-0.64L42.61,-0.658L42.851,-0.677L43.091,-0.697L43.331,-0.718L43.569,-0.74L43.807,-0.763L44.043,-0.787L44.279,-0.813L44.514,-0.839L44.748,-0.866L44.981,-0.895L45.213,-0.924L45.445,-0.955L45.675,-0.986L45.905,-1.019L46.133,-1.052L46.361,-1.087L46.588,-1.122L46.813,-1.159L47.038,-1.197L47.262,-1.235L47.485,-1.275L47.707,-1.316L47.929,-1.357L48.149,-1.4L48.368,-1.443L48.587,-1.488L48.804,-1.534L49.021,-1.58L49.237,-1.628L49.451,-1.676L49.665,-1.726L49.878,-1.777L50.09,-1.828L50.301,-1.88L50.511,-1.934L50.72,-1.988L50.928,-2.044L51.136,-2.1L51.342,-2.157L51.547,-2.215L51.752,-2.275L51.955,-2.335L52.158,-2.396L52.359,-2.458L52.56,-2.521L52.76,-2.585L52.958,-2.65L53.156,-2.715L53.353,-2.782L53.549,-2.85L53.744,-2.918L53.938,-2.988L54.131,-3.058L54.323,-3.129L54.514,-3.202L54.704,-3.275L54.893,-3.349L55.081,-3.424L55.268,-3.5L55.455,-3.576L55.64,-3.654L55.824,-3.732L56.008,-3.812L56.19,-3.892L56.372,-3.973L56.552,-4.055L56.731,-4.138L56.91,-4.222L57.088,-4.307L57.264,-4.393L57.44,-4.479L57.614,-4.566L57.788,-4.655L57.961,-4.744L58.133,-4.834L58.303,-4.924L58.473,-5.016L58.642,-5.108L58.81,-5.202L58.977,-5.296L59.142,-5.391L59.307,-5.487L59.471,-5.584L59.634,-5.681L59.796,-5.78L59.957,-5.879L60.117,-5.979L60.276,-6.08L60.434,-6.181L60.591,-6.284L60.747,-6.387L60.902,-6.492L61.056,-6.597L61.209,-6.702L61.362,-6.809L61.513,-6.917L61.663,-7.025L61.812,-7.134L61.96,-7.244L62.107,-7.355L62.254,-7.466L62.399,-7.578L62.543,-7.691L62.686,-7.805L62.828,-7.92L62.97,-8.036L63.11,-8.152L63.249,-8.269L63.388,-8.387L63.525,-8.505L63.661,-8.625L63.797,-8.745L63.931,-8.866L64.064,-8.988L64.197,-9.11L64.328,-9.234L64.458,-9.358L64.588,-9.483L64.716,-9.608L64.844,-9.735L64.97,-9.862L65.095,-9.99L65.22,-10.119L65.343,-10.248L65.466,-10.378L65.587,-10.51L65.707,-10.641L65.827,-10.774L65.945,-10.907L66.063,-11.041L66.179,-11.176L66.294,-11.312L66.409,-11.448L66.522,-11.585L66.635,-11.723L66.746,-11.862L66.857,-12.001L66.966,-12.141L67.074,-12.282L67.182,-12.423L67.288,-12.566L67.394,-12.709L67.498,-12.853L67.601,-12.997L67.704,-13.143L67.805,-13.289L67.906,-13.435L68.005,-13.583L68.103,-13.731L68.201,-13.88L68.297,-14.03L68.392,-14.181L68.487,-14.332L68.58,-14.484L68.672,-14.636L68.763,-14.79L68.853,-14.944L68.943,-15.099L69.031,-15.255L69.118,-15.411L69.204,-15.568L69.289,-15.726L69.373,-15.884L69.456,-16.044L69.538,-16.204L69.619,-16.365L69.699,-16.526L69.778,-16.688L69.856,-16.851L69.933,-17.015L70.009,-17.179L70.083,-17.344L70.157,-17.51L70.23,-17.676L70.301,-17.844L70.372,-18.012L70.442,-18.18L70.51,-18.35L70.577,-18.52L70.644,-18.691L70.709,-18.862L70.773,-19.034L70.837,-19.207L70.899,-19.381L70.96,-19.555L71.02,-19.731L71.079,-19.906L71.137,-20.083L71.194,-20.26L71.249,-20.438L71.304,-20.617L71.358,-20.796L71.41,-20.976L71.462,-21.157L71.512,-21.338L71.561,-21.521L71.61,-21.703L71.657,-21.887L71.703,-22.071L71.748,-22.256L71.792,-22.442L71.834,-22.628L71.876,-22.815L71.917,-23.003L71.956,-23.191L71.994,-23.38L72.032,-23.57L72.068,-23.761L72.103,-23.952L72.137,-24.144L72.169,-24.336L72.201,-24.53L72.232,-24.724L72.261,-24.918L72.289,-25.113L72.317,-25.309L72.343,-25.506L72.367,-25.703L72.391,-25.901L72.414,-26.1L72.435,-26.299L72.456,-26.499L72.475,-26.7L72.493,-26.901L72.51,-27.103L72.526,-27.306L72.54,-27.509L72.554,-27.713L72.566,-27.918L72.577,-28.123L72.587,-28.329L72.596,-28.536L72.604,-28.743L72.61,-28.951L72.616,-29.159L72.62,-29.369L72.623,-29.578L72.624,-29.789L72.625,-30.001L72.625,-30.218L72.623,-30.435L72.621,-30.652L72.617,-30.867L72.613,-31.082L72.608,-31.296L72.602,-31.509L72.595,-31.721L72.587,-31.933L72.578,-32.143L72.568,-32.353L72.558,-32.562L72.546,-32.77L72.533,-32.978L72.52,-33.184L72.505,-33.39L72.49,-33.595L72.474,-33.799L72.457,-34.002L72.439,-34.205L72.42,-34.406L72.4,-34.607L72.38,-34.807L72.358,-35.006L72.335,-35.204L72.312,-35.402L72.288,-35.598L72.263,-35.794L72.237,-35.989L72.21,-36.183L72.182,-36.376L72.154,-36.569L72.124,-36.76L72.094,-36.951L72.063,-37.141L72.031,-37.33L71.998,-37.518L71.964,-37.706L71.929,-37.892L71.894,-38.078L71.857,-38.263L71.82,-38.447L71.782,-38.63L71.743,-38.813L71.704,-38.994L71.663,-39.175L71.622,-39.355L71.58,-39.534L71.537,-39.712L71.493,-39.889L71.448,-40.066L71.403,-40.241L71.356,-40.416L71.309,-40.59L71.261,-40.763L71.213,-40.935L71.163,-41.106L71.113,-41.277L71.062,-41.447L71.01,-41.615L70.957,-41.783L70.903,-41.95L70.849,-42.117L70.794,-42.282L70.738,-42.447L70.681,-42.61L70.624,-42.773L70.566,-42.935L70.507,-43.096L70.447,-43.257L70.386,-43.416L70.325,-43.575L70.263,-43.732L70.2,-43.889L70.136,-44.045L70.072,-44.201L70.007,-44.355L69.941,-44.508L69.874,-44.661L69.807,-44.813L69.739,-44.964L69.67,-45.114L69.6,-45.263L69.53,-45.411L69.458,-45.559L69.387,-45.706L69.314,-45.851L69.241,-45.996L69.167,-46.141L69.092,-46.284L69.016,-46.426L68.94,-46.568L68.863,-46.709L68.785,-46.849L68.707,-46.988L68.628,-47.126L68.548,-47.263L68.467,-47.4L68.386,-47.535L68.304,-47.67L68.221,-47.804L68.138,-47.937L68.054,-48.069L67.969,-48.201L67.884,-48.331L67.798,-48.461L67.711,-48.59L67.623,-48.718L67.535,-48.845L67.446,-48.972L67.356,-49.097L67.266,-49.222L67.175,-49.346L67.083,-49.469L66.991,-49.591L66.898,-49.712L66.804,-49.833L66.709,-49.952L66.614,-50.071L66.518,-50.189L66.422,-50.306L66.325,-50.422L66.227,-50.538L66.129,-50.652L66.029,-50.766L65.93,-50.879L65.829,-50.991L65.728,-51.103L65.626,-51.213L65.524,-51.323L65.42,-51.432L65.317,-51.54L65.212,-51.647L65.107,-51.753L65.001,-51.858L64.895,-51.963L64.788,-52.067L64.68,-52.17L64.571,-52.272L64.462,-52.373L64.353,-52.474L64.242,-52.574L64.131,-52.672L64.019,-52.77L63.907,-52.868L63.794,-52.964L63.68,-53.059L63.566,-53.154L63.451,-53.248L63.335,-53.341L63.219,-53.433L63.102,-53.525L62.985,-53.615L62.866,-53.705L62.748,-53.794L62.628,-53.882L62.508,-53.969L62.387,-54.056L62.266,-54.141L62.144,-54.226L62.021,-54.31L61.898,-54.393L61.774,-54.475L61.649,-54.557L61.524,-54.637L61.398,-54.717L61.271,-54.796L61.144,-54.874L61.016,-54.952L60.887,-55.028L60.758,-55.104L60.629,-55.178L60.498,-55.252L60.367,-55.326L60.235,-55.398L60.103,-55.469L59.97,-55.54L59.836,-55.61L59.702,-55.679L59.567,-55.747L59.432,-55.814L59.296,-55.881L59.159,-55.946L59.021,-56.011L58.883,-56.075L58.745,-56.138L58.605,-56.2L58.465,-56.261L58.325,-56.322L58.183,-56.382L58.041,-56.44L57.899,-56.498L57.756,-56.556L57.612,-56.612L57.468,-56.667L57.323,-56.722L57.177,-56.776L57.031,-56.828L56.884,-56.88L56.736,-56.931L56.588,-56.982L56.439,-57.031L56.29,-57.08L56.14,-57.127L55.989,-57.174L55.838,-57.22L55.686,-57.265L55.533,-57.309L55.38,-57.353L55.226,-57.395L55.072,-57.437L54.917,-57.477L54.761,-57.517L54.605,-57.556L54.448,-57.594L54.291,-57.631L54.133,-57.668L53.974,-57.703L53.815,-57.738L53.655,-57.771L53.494,-57.804L53.333,-57.836L53.171,-57.867L53.009,-57.897L52.846,-57.926L52.682,-57.954L52.518,-57.982L52.353,-58.008L52.188,-58.034L52.022,-58.058L51.855,-58.082L51.688,-58.105L51.52,-58.127L51.352,-58.148L51.183,-58.168L51.014,-58.187L50.843,-58.205L50.673,-58.222L50.501,-58.239L50.329,-58.254L50.157,-58.269L49.984,-58.282L49.81,-58.295L49.636,-58.307L49.461,-58.318L49.286,-58.328L49.11,-58.337L48.933,-58.345L48.756,-58.352L48.578,-58.358L48.4,-58.363L48.221,-58.367L48.042,-58.371L47.862,-58.373L47.681,-58.375L47.501,-58.375L47.253,-58.374L47.008,-58.372L46.765,-58.368L46.523,-58.362L46.284,-58.355L46.046,-58.347L45.81,-58.336L45.576,-58.325L45.343,-58.312L45.112,-58.297L44.883,-58.281L44.656,-58.263L44.431,-58.244L44.207,-58.224L43.985,-58.202L43.764,-58.179L43.546,-58.154L43.329,-58.128L43.114,-58.1L42.9,-58.072L42.688,-58.042L42.478,-58.01L42.27,-57.978L42.063,-57.944L41.858,-57.908L41.655,-57.872L41.453,-57.834L41.253,-57.795L41.054,-57.755L40.857,-57.714L40.662,-57.671L40.468,-57.627L40.276,-57.582L40.086,-57.536L39.897,-57.489L39.709,-57.44L39.524,-57.391L39.339,-57.34L39.157,-57.288L38.976,-57.236L38.796,-57.182L38.618,-57.127L38.442,-57.071L38.267,-57.014L38.094,-56.956L37.922,-56.897L37.751,-56.837L37.582,-56.776L37.415,-56.714L37.249,-56.651L37.085,-56.587L36.922,-56.523L36.76,-56.457L36.6,-56.39L36.441,-56.323L36.284,-56.255L36.128,-56.185L35.974,-56.115L35.821,-56.044L35.669,-55.973L35.519,-55.9L35.37,-55.827L35.223,-55.752L35.077,-55.677L34.932,-55.602L34.789,-55.525L34.647,-55.448L34.506,-55.37L34.367,-55.291L34.229,-55.212L34.092,-55.132L33.956,-55.051L33.822,-54.969L33.69,-54.887L33.558,-54.804L33.428,-54.72L33.299,-54.636L33.171,-54.551L33.045,-54.466L32.92,-54.38L32.796,-54.293L32.673,-54.206L32.552,-54.118L32.431,-54.03L32.312,-53.941L32.195,-53.851L32.078,-53.761L31.963,-53.67L31.849,-53.579L31.736,-53.488L31.624,-53.396L31.513,-53.303L31.404,-53.21L31.296,-53.116L31.188,-53.022L31.082,-52.928L30.978,-52.833L30.874,-52.738L30.771,-52.642L30.67,-52.546L30.57,-52.45L30.471,-52.353L30.373,-52.256L30.276,-52.158L30.18,-52.06L30.085,-51.962L29.992,-51.863L29.899,-51.764L29.808,-51.665L29.717,-51.565L29.628,-51.466L29.54,-51.366L29.452,-51.265L29.366,-51.165L29.281,-51.064L29.197,-50.963L29.114,-50.862L29.032,-50.76L28.952,-50.658L28.872,-50.557L28.793,-50.455L28.715,-50.352L28.638,-50.25L28.562,-50.148L28.488,-50.045L28.414,-49.942L28.341,-49.839L24.457,-44.271L25.175,-72.625L66.875,-72.625L66.875,-87.375L10.555,-87.375Z" style="fill:white;"/>
    </g>
</svg>
